<!DOCTYPE svg PUBLIC "-//W3C//DTD SVG 1.1//EN" "http://www.w3.org/Graphics/SVG/1.1/DTD/svg11.dtd">
<!-- Uploaded to: SVG Repo, www.svgrepo.com, Transformed by: SVG Repo Mixer Tools -->
<svg width="64px" height="64px" viewBox="-2.4 -2.4 28.80 28.80" id="meteor-icon-kit__solid-link" fill="none" xmlns="http://www.w3.org/2000/svg" transform="matrix(-1, 0, 0, 1, 0, 0)rotate(270)">
<g id="SVGRepo_bgCarrier" stroke-width="0" transform="translate(0,0), scale(1)">
<path transform="translate(-2.4, -2.4), scale(0.8999999999999999)" d="M16,29.767176251858473C18.45610652118981,29.98672007442393,21.337783238845418,31.395939644971673,23.289207353397984,29.888424252479613C25.347826021308535,28.298098855758653,23.966362985141156,24.659306934057792,25.411711183954175,22.496435169131942C26.824018471833387,20.383007028520876,30.8437119665993,20.35658461884522,31.326594163752578,17.860985459405565C31.795805289195112,15.436040209493136,28.3148785603013,13.969803650401932,27.51362669930787,11.633457357455086C26.675047886817058,9.188270525093085,28.255809956604132,6.023267878218949,26.589176342869912,4.047290786376477C24.970085817047053,2.12768124395467,21.93106899411507,1.7675909800655205,19.436582853327025,2.0572352784429846C17.097914479557527,2.328786981690387,15.712994195584336,4.99778267595296,13.430515856786311,5.575193035163839C11.16894437855077,6.147314477646724,8.471483920610757,4.014198629999624,6.5384680195420675,5.320138147103229C4.678059713293715,6.57702419948091,5.433618727954604,9.599213460763439,4.471556465207993,11.627838072962128C3.4056701333211876,13.87538828920136,0.23248411668765745,15.40935961747662,0.5860192637320711,17.87159611034736C0.9423822886424413,20.353527686259078,4.4983213030330145,20.901982928445616,6.082253753131283,22.845725953270808C7.505820140493264,24.592673707033146,7.516082349302109,27.35401253931718,9.364074652428087,28.64369938548925C11.230931963338078,29.94655184514944,13.732512393489118,29.564492495083933,16,29.767176251858473" fill="#7ed0ec" strokewidth="0"/>
</g>
<g id="SVGRepo_tracerCarrier" stroke-linecap="round" stroke-linejoin="round" stroke="#CCCCCC" stroke-width="3.3599999999999994">
<path fill-rule="evenodd" clip-rule="evenodd" d="M9.17197 18.3639C9.75776 17.7781 10.7075 17.7781 11.2933 18.3639C11.8791 18.9497 11.8791 19.8994 11.2933 20.4852L9.87908 21.8994C7.73119 24.0473 4.24879 24.0473 2.1009 21.8994C-0.0469807 19.7515 -0.0469807 16.2691 2.1009 14.1212L7.05065 9.17148C9.19853 7.0236 12.6809 7.0236 14.8288 9.17148C15.4146 9.75727 15.4146 10.707 14.8288 11.2928C14.243 11.8786 13.2933 11.8786 12.7075 11.2928C11.7312 10.3165 10.1483 10.3165 9.17197 11.2928L4.22222 16.2425C3.24591 17.2189 3.24591 18.8018 4.22222 19.7781C5.19853 20.7544 6.78145 20.7544 7.75776 19.7781L9.17197 18.3639ZM14.8288 5.63595C14.243 6.22174 13.2933 6.22174 12.7075 5.63595C12.1217 5.05016 12.1217 4.10041 12.7075 3.51463L14.1217 2.10041C16.2696 -0.047469 19.752 -0.047469 21.8999 2.10041C24.0478 4.2483 24.0478 7.73071 21.8999 9.87859L16.9501 14.8283C14.8023 16.9762 11.3199 16.9762 9.17197 14.8283C8.58618 14.2425 8.58618 13.2928 9.17197 12.707C9.75776 12.1212 10.7075 12.1212 11.2933 12.707C12.2696 13.6833 13.8525 13.6833 14.8288 12.707L19.7786 7.75727C20.7549 6.78096 20.7549 5.19805 19.7786 4.22174C18.8023 3.24542 17.2193 3.24542 16.243 4.22174L14.8288 5.63595Z" fill="#758CA3"/>
</g>
<g id="SVGRepo_iconCarrier">
<path fill-rule="evenodd" clip-rule="evenodd" d="M9.17197 18.3639C9.75776 17.7781 10.7075 17.7781 11.2933 18.3639C11.8791 18.9497 11.8791 19.8994 11.2933 20.4852L9.87908 21.8994C7.73119 24.0473 4.24879 24.0473 2.1009 21.8994C-0.0469807 19.7515 -0.0469807 16.2691 2.1009 14.1212L7.05065 9.17148C9.19853 7.0236 12.6809 7.0236 14.8288 9.17148C15.4146 9.75727 15.4146 10.707 14.8288 11.2928C14.243 11.8786 13.2933 11.8786 12.7075 11.2928C11.7312 10.3165 10.1483 10.3165 9.17197 11.2928L4.22222 16.2425C3.24591 17.2189 3.24591 18.8018 4.22222 19.7781C5.19853 20.7544 6.78145 20.7544 7.75776 19.7781L9.17197 18.3639ZM14.8288 5.63595C14.243 6.22174 13.2933 6.22174 12.7075 5.63595C12.1217 5.05016 12.1217 4.10041 12.7075 3.51463L14.1217 2.10041C16.2696 -0.047469 19.752 -0.047469 21.8999 2.10041C24.0478 4.2483 24.0478 7.73071 21.8999 9.87859L16.9501 14.8283C14.8023 16.9762 11.3199 16.9762 9.17197 14.8283C8.58618 14.2425 8.58618 13.2928 9.17197 12.707C9.75776 12.1212 10.7075 12.1212 11.2933 12.707C12.2696 13.6833 13.8525 13.6833 14.8288 12.707L19.7786 7.75727C20.7549 6.78096 20.7549 5.19805 19.7786 4.22174C18.8023 3.24542 17.2193 3.24542 16.243 4.22174L14.8288 5.63595Z" fill="#758CA3"/>
</g>
</svg>